<?xml version="1.0" encoding="utf-8"?>
<!-- Generator: Adobe Illustrator 15.1.0, SVG Export Plug-In . SVG Version: 6.00 Build 0)  -->
<!DOCTYPE svg PUBLIC "-//W3C//DTD SVG 1.1//EN" "http://www.w3.org/Graphics/SVG/1.1/DTD/svg11.dtd">
<svg version="1.1" id="Layer_1" xmlns="http://www.w3.org/2000/svg" xmlns:xlink="http://www.w3.org/1999/xlink" x="0px" y="0px"
	 width="400px" height="200px" viewBox="0 0 400 200" enable-background="new 0 0 400 200" xml:space="preserve">
<g>
	<path fill-rule="evenodd" clip-rule="evenodd" fill="#070707" d="M67.285,102.792c1.612-1.157,2.13-3.494,2.931-5.524
		c1.064-0.827,1.721-2.093,2.198-3.551c1.957-1.51,3.146-3.847,5.495-4.931c0.249-0.063,0.152-0.494,0.184-0.79
		c0.497-0.058,1.356,0.277,1.099-0.592c0.517-0.102,1.548,0.352,1.283-0.592c0.697-0.236,2.354,0.563,2.198-0.592
		c1.161,0,2.32,0,3.48,0c0.425,0.792,1.224,1.181,2.382,1.184c0.616,0.979,1.123,2.079,2.198,2.563
		c0.054,0.536-0.257,1.462,0.55,1.186c0.157,0.619-0.429,2.038,0.549,1.774c0,2.235,0,4.472,0,6.707
		c-1.41-0.269,0.312,2.835-1.099,2.563c0,1.053,0,2.105,0,3.157c-0.183,0-0.366,0-0.55,0c-0.132,4-1.544,6.621-1.832,10.454
		c-0.183,0-0.366,0-0.549,0c-0.258,0.906,0.58,2.991-0.549,2.959c0,1.053,0,2.104,0,3.156c-0.184,0-0.367,0-0.55,0
		c0,1.053,0,2.104,0,3.157c-0.183,0-0.366,0-0.549,0c0,2.367,0,4.733,0,7.103c0.221,0.286,0.801,0.188,0.549,0.984
		c2.214,0.279,2.264-1.769,4.03-1.972c0-0.395,0-0.789,0-1.184c2.154-1.23,2.703-4.192,4.58-5.722c0-0.328,0-0.657,0-0.985
		c0.971,0.387,0.128-1.178,1.099-0.789c0-0.395,0-0.789,0-1.184c0.807,0.277,0.496-0.65,0.55-1.185
		c1.722-0.445,1.199-3.311,2.931-3.747c0-0.461,0-0.921,0-1.381c1.061,0.42,0.038-1.405,1.099-0.986c0-0.46,0-0.921,0-1.382
		c0.86,0.335,0.238-0.926,1.099-0.592c0.152-1.414,0.8-3.119,1.283-4.34c0.173-0.438,0.633-1.239,1.099-1.184
		c0.074-1.103,0.379-1.958,1.099-2.366c-0.29-1.135,0.626-3.566-0.549-3.749c0-2.3,0-4.602,0-6.903
		c1.129,0.032,0.292-2.054,0.549-2.96c0.808,0.278,0.497-0.649,0.55-1.182c0.757-0.236,1.173-0.841,1.099-1.974
		c0.75,0.15,0.631-0.636,0.733-1.184c0.786-0.338,1.334-0.93,1.648-1.776c0.93-0.05,1.434-0.56,1.649-1.38
		c0.497-0.058,1.357,0.277,1.099-0.592c0.517-0.102,1.548,0.353,1.282-0.592c1.165-0.324,3.572,0.69,3.847-0.592
		c0.611,0,1.222,0,1.832,0c0.168,1.265,2.426,0.279,3.48,0.592c-0.245,1.052,1.073,0.422,1.649,0.592
		c0.833,1.339,2.324,1.969,3.48,2.959c-0.006,0.861,0.479,1.194,1.099,1.381c0.692,2.74,2.341,4.449,2.381,7.891
		c0.03,0.23,0.334,0.166,0.55,0.196c0,3.484,0,6.97,0,10.456c-0.184,0-0.367,0-0.55,0c-0.234,2.799-0.585,6.006-1.282,8.481
		c-0.112,0.401-0.782,1.609-1.099,1.381c0.008,0.865,0.17,1.893-0.549,1.974c-0.174,0.713,0.722,0.275,1.099,0.395
		c0.214-0.03,0.154-0.36,0.183-0.592c0.696-0.236,2.354,0.563,2.198-0.592c0.575-0.17,1.894,0.461,1.649-0.593
		c2.875-0.322,3.713-2.839,6.044-3.748c0.395-0.691,0.548-1.646,1.465-1.774c0-1.249,0-2.499,0-3.749c0.183,0,0.367,0,0.55,0
		c0-1.249,0-2.497,0-3.746c1.072,0.167,0.33-1.618,0.549-2.369c0.876,0.288,0.455-0.824,0.55-1.38c0.183,0,0.366,0,0.549,0
		c0.565-2.877,1.595-5.254,3.48-6.707c0-0.396,0-0.789,0-1.183c1.421-1.363,2.879-2.687,4.03-4.341
		c0.496-0.058,1.357,0.277,1.1-0.592c0.305,0,0.61,0,0.916,0c0.339-0.03,0.112-0.668,0.367-0.789
		c2.437-0.827,5.371-1.612,8.609-0.987c0.674,0.655,1.414,1.239,2.198,1.776c0.054,0.534-0.257,1.461,0.55,1.184
		c0,1.052,0,2.104,0,3.155c-0.978-0.264-0.392,1.156-0.55,1.776c-0.86-0.336-0.239,0.927-1.099,0.592
		c-0.234,2.443-2.87,2.302-3.48,4.34c-0.367,0-0.733,0-1.099,0c0.073,0.868-1.296,0.184-1.099,1.184
		c-1.07-0.101-1.422,0.573-1.832,1.184c-1.313,0.097-2.465,0.369-2.931,1.38c-0.489,0-0.977,0-1.466,0
		c-0.499,1.108-0.961,2.254-0.732,4.144c-0.184,0-0.366,0-0.55,0c-0.227,3.667-0.303,7.988,0,11.637
		c0.03,0.233,0.334,0.169,0.55,0.199c-0.115,1.965,1.246,2.341,1.649,3.747c0.496,0.058,1.356-0.276,1.099,0.593
		c1.648,0,3.297,0,4.946,0c0.214-0.032,0.154-0.359,0.183-0.593c0.516-0.101,1.548,0.353,1.282-0.592c0.305,0,0.61,0,0.916,0
		c0.597-1.265,2.691-0.915,2.931-2.563c2.901-1.413,3.974-4.795,6.411-6.707c0-0.395,0-0.789,0-1.184
		c1.183-0.37,1.121-2.08,2.198-2.565c0.121,1.58-0.243,3.682,0.183,4.932c0.899-0.806,1.153-2.309,2.198-2.958
		c0-0.46,0-0.921,0-1.382c0.86,0.336,0.238-0.926,1.099-0.592c0.099-1.984,1.086-2.714,0.55-4.932c-0.672,0-1.344,0-2.015,0
		c-0.5,1.172-0.757,2.604-1.832,3.157c-0.426-2.508,0.795-4.567,0.55-7.495c1.291,0.404-0.192-2.18,1.099-1.777
		c0-0.788,0-1.577,0-2.366c1.015,0.239,0.368-1.313,0.549-1.973c0.807,0.276,0.497-0.649,0.55-1.185
		c1.424-0.504,1.789-2.149,3.846-1.972c0.215-0.031,0.155-0.359,0.184-0.592c1.16,0,2.32,0,3.48,0
		c0.112,0.865,1.198,0.683,1.649,1.184c0,1.513,0,3.024,0,4.537c-1.073-0.169-0.331,1.616-0.55,2.366
		c-1.135-0.433,0.037,1.618-1.099,1.185c0,0.855,0,1.709,0,2.564c-0.184,0-0.367,0-0.55,0c-0.271,3.62-1.783,6.848-1.648,10.258
		c0.982-0.718,1.075-2.395,2.198-2.96c0-0.395,0-0.788,0-1.184c0.992-0.574,1.453-1.723,1.649-3.154c0.244,0,0.488,0,0.732,0
		c0.778-1.991,1.784-3.734,3.297-4.932c0-0.396,0-0.791,0-1.186c2.251-1.98,3.889-4.622,5.862-6.903
		c1.119-0.373,1.681-1.345,2.198-2.367c1.05,0.145,1.452-0.409,1.649-1.184c0.496-0.058,1.356,0.277,1.099-0.592
		c1.16,0,2.32,0,3.48,0c-0.246,1.052,1.072,0.422,1.648,0.592c-0.311,0.927,0.86,0.257,0.549,1.184c0.429,0,0.855,0,1.283,0
		c0.073,1.104,0.379,1.959,1.099,2.367c0,1.841,0,3.682,0,5.523c-1.016-0.238-0.368,1.313-0.55,1.973
		c-1.015-0.239-0.368,1.313-0.549,1.973c-0.979-0.266-0.393,1.155-0.551,1.774c-0.183,0-0.365,0-0.549,0
		c-0.145,3.198-1.6,4.983-1.831,8.089c-0.184,0-0.367,0-0.55,0c-0.22,0.75,0.522,2.536-0.55,2.367
		c-0.169,1.134,0.451,3.115-0.55,3.354c0.408,0.736,0.492-0.5,1.1-0.197c0-0.395,0-0.79,0-1.185c1.771-0.984,1.746-3.904,3.48-4.932
		c0-0.459,0-0.919,0-1.381c0.86,0.335,0.238-0.926,1.099-0.592c0-0.394,0-0.788,0-1.183c1.817-0.74,1.678-3.586,3.48-4.341
		c0-0.394,0-0.788,0-1.183c2.234-1.539,2.696-4.987,5.129-6.313c0-0.395,0-0.789,0-1.184c2.015-1.118,2.434-3.955,4.58-4.932
		c0-0.396,0-0.789,0-1.184c1.467-0.919,2.627-2.169,3.479-3.748c1.051,0.144,1.452-0.409,1.649-1.184
		c1.556-0.674,3.554-1.074,5.679-0.592c-0.267,0.943,0.765,0.49,1.281,0.592c-0.256,0.869,0.604,0.534,1.101,0.592
		c0.718,1.396,1.989,2.195,2.747,3.551c0.598,3.274-0.562,5.654-1.099,8.285c-0.184,0-0.367,0-0.551,0
		c-0.053,0.535,0.259,1.461-0.549,1.183c0,0.592,0,1.184,0,1.775c-0.72,0.409-1.024,1.264-1.1,2.368
		c-1.609,1.026-1.21,4.22-2.931,5.129c-0.053,0.534,0.258,1.46-0.55,1.184c0,0.591,0,1.183,0,1.774
		c-0.72,0.409-1.024,1.264-1.099,2.369c-0.839,0.345-0.996,1.425-1.1,2.563c-1.139,0.483-0.56,2.816-1.831,3.156
		c0,0.592,0,1.185,0,1.776c-0.758,0.565-1.096,1.582-1.099,2.958c-1.016-0.239-0.369,1.314-0.551,1.973c-0.243,0-0.488,0-0.732,0
		c-0.42,4.043-2.823,10.152-0.366,13.612c0.305,0,0.61,0,0.916,0c0.215-0.031,0.154-0.36,0.183-0.592
		c2.785-0.487,3.646-3.046,5.679-4.34c0-0.264,0-0.526,0-0.79c0.841-0.541,1.795-0.96,1.833-2.366
		c1.088-0.208,1.109-1.568,2.198-1.776c-0.278-1.744,1.375-1.41,1.098-3.155c2.168-0.756,2.151-3.865,4.03-4.932
		c0-0.395,0-0.791,0-1.184c1.351-0.124,0.898-2.189,2.198-2.367c0.064,1.778-0.637,2.731-0.366,4.733c0.244,0,0.488,0,0.733,0
		c0.485-0.594,0.495-1.701,1.465-1.774c-0.354-1.366,0.903-1,0.55-2.367c1.872-1.074,1.777-4.267,3.48-5.523
		c0.002-1.248,0.364-2.106,1.099-2.565c0.181-0.659-0.466-2.21,0.55-1.972c0-0.263,0-0.525,0-0.79
		c-0.565-0.113-0.645-0.752-0.55-1.578c-0.55,0-1.099,0-1.648,0c-1.264,1.532-0.977,4.736-2.931,5.523
		c0.082,1.799-1.061,2.279-1.283,3.749c-1.634-1.044,0.765-2.497,0.183-4.341c1.137,0.435-0.035-1.615,1.101-1.184
		c0-0.459,0-0.921,0-1.38c0.807,0.277,0.496-0.649,0.549-1.184c1.536-1.239,1.732-3.921,3.48-4.932c0-0.396,0-0.789,0-1.184
		c2.021-1.506,3.731-3.348,5.129-5.523c0.367,0,0.733,0,1.1,0c0.411-1.201,1.931-1.208,2.381-2.366
		c0.496-0.06,1.357,0.277,1.1-0.592c0.74-0.06,1.743,0.165,1.648-0.79c0.517-0.102,1.549,0.352,1.282-0.592
		c0.697-0.236,2.354,0.563,2.198-0.592c2.32,0,4.641,0,6.961,0c0,0.196,0,0.395,0,0.592c0.671,0,1.343,0,2.016,0
		c1.942-1.619,4.429-2.827,7.692-1.973c-0.006,0.861,0.479,1.194,1.1,1.381c0,0.854,0,1.71,0,2.565
		c-0.978-0.266-0.392,1.155-0.55,1.775c-1.135-0.435,0.037,1.616-1.1,1.183c-0.253,2.619-1.594,4.068-1.831,6.707
		c-0.184,0-0.366,0-0.55,0c0.039,3.133-1.688,4.363-1.648,7.495c-0.939-0.09-0.67,1.121-0.733,1.973
		c-0.816,1.948-1.235,4.323-1.647,6.707c-0.184,0-0.367,0-0.55,0c0,1.251,0,2.499,0,3.749c-0.183,0-0.366,0-0.55,0
		c0.048,3.96-0.269,8.313,0.55,11.441c0.583,0.687,1.454,1.063,1.831,1.972c0.489,0,0.979,0,1.466,0
		c0.215-0.031,0.154-0.359,0.184-0.592c4.188-1.274,5.701-5.433,8.609-8.087c0-0.395,0-0.789,0-1.184
		c0.861,0.333,0.239-0.927,1.099-0.593c0-0.394,0-0.788,0-1.184c1.774-0.983,1.747-3.904,3.48-4.932
		c0.074-1.103,0.38-1.96,1.1-2.367c0-0.459,0-0.92,0-1.381c0.808,0.277,0.496-0.648,0.549-1.183c1.667-1.1,1.244-4.447,2.932-5.523
		c0.094-0.556-0.327-1.668,0.55-1.381c0-1.249,0-2.499,0-3.748c0.183,0,0.366,0,0.549,0c0-1.184,0-2.366,0-3.552
		c1.129,0.034,0.293-2.052,0.55-2.958c0.183,0,0.366,0,0.55,0c0.167-3.438,1.397-5.728,1.831-8.877c0.184,0,0.367,0,0.55,0
		c0-0.789,0-1.579,0-2.367c1.135,0.434-0.036-1.617,1.1-1.184c-0.393-1.87,0.879-1.946,0.55-3.748c0.243,0,0.488,0,0.731,0
		c-0.028-2.202,1.442-2.788,1.466-4.932c0.244,0,0.489,0,0.732,0c0.054-0.534-0.257-1.461,0.55-1.184c0-0.461,0-0.921,0-1.381
		c0.721-0.408,1.025-1.263,1.1-2.367c1.482-0.705,1.309-3.194,2.931-3.748c0-0.395,0-0.79,0-1.184
		c0.861,0.335,0.239-0.927,1.099-0.592c0-0.46,0-0.92,0-1.381c1.162-0.524,1.702-1.719,2.198-2.959
		c0.994-0.245,1.604-0.903,1.833-1.972c1.534-1.176,2.872-2.561,4.028-4.143c0.306,0,0.611,0,0.917,0
		c0.917-1.511,2.652-2.141,4.579-2.565c0.215-0.031,0.155-0.359,0.184-0.591c0.517-0.102,1.548,0.352,1.281-0.593
		c2.626,0,5.253,0,7.877,0c-0.244,1.053,1.074,0.422,1.649,0.593c0.294,0.801,0.819,1.352,1.831,1.38
		c0.114,1.258,0.768,1.935,1.648,2.366c0.054,0.535-0.257,1.462,0.551,1.184c-0.096,1.839,0.932,5.448-0.551,6.312
		c0,0.593,0,1.185,0,1.776c-0.807-0.277-0.495,0.649-0.549,1.184c-0.86-0.335-0.238,0.926-1.1,0.592c0,0.394,0,0.789,0,1.184
		c-0.906,0.141-1.188,0.956-1.282,1.973c-0.68-0.01-0.796,0.588-0.915,1.184c-0.813,0.046-1.239,0.506-1.283,1.38
		c-1.342,0.921-2.441,2.105-3.297,3.551c-0.812,0.046-1.239,0.506-1.282,1.38c-0.552,0.128-1.108,0.253-1.099,0.987
		c-1.487,0.305-2.181,1.466-2.931,2.564c-2.231,0.359-2.768,2.545-4.946,2.959c-0.249,0.061-0.151,0.494-0.183,0.789
		c-1.331,0.21-2.397,0.707-2.932,1.775c-0.305,0-0.61,0-0.916,0c-1.092,1.585-3.793,1.439-4.763,3.156
		c-1.427-0.421-1.451,0.672-2.564,0.592c-0.888,2.266-1.71,4.602-2.015,7.495c-0.183,0-0.366,0-0.55,0c0,0.987,0,1.973,0,2.96
		c-1.072-0.17-0.33,1.616-0.55,2.367c-1.094-0.126-0.315,1.764-0.55,2.563c-0.872-0.001-0.839,2.104-0.365,2.368
		c0.816,0.222-0.112-1.436,0.915-0.986c-0.39-1.473,0.854-1.185,0.55-2.565c1.695-0.869,1.72-3.539,3.48-4.34
		c0-0.395,0-0.788,0-1.184c1.067-0.756,2.006-1.653,2.382-3.155c1.484-1.229,2.974-2.453,3.846-4.34
		c0.479,0.055,0.917,0.066,0.733-0.592c1.05,0.145,1.451-0.409,1.648-1.184c0.306,0,0.61,0,0.916,0
		c2.078-2.107,7.468-2.365,8.793,0.592c0.366,0,0.731,0,1.099,0c-0.109,0.512,0.074,0.71,0.55,0.592c0,0.329,0,0.657,0,0.986
		c1.422,0.44,0.968,2.903,1.648,4.143c-0.85,1.714,0.057,5.32-1.648,6.115c0,0.395,0,0.789,0,1.184
		c-0.958,0.241-0.798,1.652-1.1,2.366c0.016-0.034-1.022,0.32-0.549,1.185c-1.496,1.084-2.313,2.9-3.48,4.339
		c-0.306,0-0.611,0-0.916,0c-0.841,1.463-2.763,1.76-3.663,3.157c-1.049-0.078-1.56,0.424-1.833,1.183
		c-0.496,0.058-1.356-0.277-1.099,0.592c-0.488,0-0.977,0-1.466,0c-0.414,0.081,0.098,1.156-0.731,0.789c0,0.461,0,0.921,0,1.382
		c0.472,0.543,1.16,0.854,1.098,1.971c1.323,0.353,1.27,2.187,2.931,2.172c-0.123,1.119,1.385,0.481,1.101,1.774
		c0.516,0.102,1.547-0.352,1.281,0.593c0.575,0.17,1.895-0.463,1.648,0.591c0.575-0.169,1.895,0.463,1.649-0.591
		c0.55,0,1.099,0,1.648,0c0.215-0.032,0.154-0.359,0.184-0.593c0.305,0,0.61,0,0.915,0c3.541-2.763,6.97-5.646,9.159-9.862
		c0.244,0,0.488,0,0.732,0c0.203-0.769,0.397-1.545,1.1-1.775c0-0.658,0-1.315,0-1.974c0.808,0.279,0.496-0.646,0.549-1.184
		c0.184,0,0.367,0,0.551,0c0.459-2.793,2.153-4.256,2.931-6.706c0.97,0.389,0.128-1.177,1.099-0.789c0-0.396,0-0.789,0-1.184
		c1.849-0.64,2.311-2.773,4.03-3.551c0-0.264,0-0.525,0-0.789c0.477,0.117,0.659-0.08,0.55-0.592c1.05,0.145,1.451-0.41,1.648-1.183
		c1.474,0.139,1.784-0.974,2.381-1.775c1.293,0.077,2.06-0.414,2.382-1.382c0.696-0.236,2.354,0.563,2.197-0.592
		c0.613-0.196,2.055,0.501,1.833-0.592c2.259,0,4.518,0,6.777,0c0,0.196,0,0.395,0,0.592c0.732,0,1.465,0,2.198,0
		c-0.073-0.868,1.296-0.184,1.099-1.184c0.367,0,0.732,0,1.099,0c0.66-1.46,3.545-0.523,5.313-0.789
		c-0.007,0.861,0.479,1.194,1.1,1.381c0,0.854,0,1.71,0,2.565c-0.978-0.266-0.393,1.155-0.55,1.775
		c-1.136-0.435,0.037,1.616-1.099,1.183c0.33,1.803-0.942,1.878-0.55,3.747c-1.192,0.66-1.774,4.212-2.198,6.115
		c-0.244,0-0.489,0-0.733,0c0,0.789,0,1.578,0,2.368c-1.328-0.379,0.23,2.35-1.099,1.972c0,0.79,0,1.579,0,2.367
		c-1.015-0.238-0.367,1.314-0.55,1.974c-0.183,0-0.365,0-0.549,0c-1.233,5.968-3.113,14.957-0.55,20.909
		c0.497,0.058,1.356-0.276,1.099,0.592c0.489,0,0.978,0,1.466,0c0.215-0.031,0.154-0.359,0.183-0.592c0.367,0,0.733,0,1.1,0
		c0.354-0.604,1.038-0.854,1.649-1.183c1.107-1.898,3.215-2.717,4.028-4.933c0.245,0,0.489,0,0.733,0c0-0.394,0-0.789,0-1.183
		c0.86,0.334,0.239-0.927,1.1-0.592c0-0.461,0-0.921,0-1.381c2.114-1.012,2.054-4.364,4.03-5.523
		c0.053-0.534-0.258-1.461,0.549-1.185c0-0.459,0-0.92,0-1.381c0.808,0.278,0.497-0.649,0.55-1.182
		c1.624-0.948,1.329-3.963,2.93-4.934c0.054-0.535-0.257-1.461,0.551-1.184c0-0.592,0-1.184,0-1.774
		c0.877,0.287,0.455-0.825,0.55-1.381c0.807,0.277,0.496-0.649,0.549-1.183c0.549-0.266,1.164-0.456,1.282-1.186
		c0.608-0.063,0.199,0.97,1.1,0.592c-0.354,1.367,0.902,1.001,0.549,2.368c-0.183,0-0.365,0-0.549,0
		c-0.394,2.142-1.509,3.503-1.831,5.721c-0.184,0-0.367,0-0.551,0c0,0.395,0,0.789,0,1.184c-1.135-0.434,0.036,1.616-1.099,1.183
		c0,0.461,0,0.922,0,1.382c-0.808-0.278-0.497,0.648-0.551,1.183c-1.701,1.259-1.606,4.45-3.479,5.523c0,0.396,0,0.79,0,1.184
		c-0.807-0.276-0.496,0.65-0.549,1.185c-1.131,0.886-1.986,2.07-2.382,3.747c-1.57,1.401-3.155,2.783-4.03,4.932
		c-1.168,0.122-1.797,0.828-2.198,1.776c-1.334,0.01-1.371,1.417-2.747,1.381c-0.215,0.031-0.155,0.359-0.184,0.592
		c-1.648,0-3.297,0-4.946,0c0-0.197,0-0.395,0-0.592c-3.079-0.497-3.727-3.614-5.861-5.13c-0.004-1.376-0.342-2.394-1.1-2.959
		c-0.462-3.053-1.266-5.737-1.281-9.271c-0.771,0.619-1.158,1.646-2.199,1.973c0,0.394,0,0.789,0,1.183
		c-0.61,0.13-0.978,0.526-1.099,1.184c-0.305,0-0.611,0-0.916,0c-0.592,1.269-1.924,1.742-2.564,2.959
		c-0.642-0.034-1.372-0.163-1.099,0.789c-1.158,0.004-1.957,0.393-2.381,1.184c-2.077,0-4.152,0-6.229,0
		c0.266-0.943-0.767-0.489-1.282-0.591c0.232-0.775-0.432-0.587-0.916-0.593c-0.346-0.877-1.074-1.34-1.832-1.774
		c0.156-1.221-0.31-1.772-1.1-1.974c0.37-2.173-0.919-2.56-0.549-4.733c0.03-0.429-0.65-0.09-0.916-0.197
		c-0.263,0.242-0.347,0.679-0.366,1.183c-0.978,0.132-1.677,0.562-1.649,1.775c-1.204,0.15-1.729,1.031-2.197,1.973
		c-0.306,0-0.61,0-0.916,0c-1.229,1.438-2.734,2.579-4.764,3.157c-0.215,0.032-0.154,0.359-0.183,0.591
		c-0.574,0.169-1.894-0.461-1.648,0.593c-1.344,0-2.687,0-4.029,0c0.029-1.216-1.906-0.315-2.748-0.593
		c0.084-1.011-1.039-0.722-1.832-0.789c-0.156-1.476-2.315-0.793-2.382-2.366c-0.813,0.334-0.611-0.232-0.915-0.593
		c-0.114-0.135-0.603,0.121-0.733,0c-0.093-0.085,0.088-0.497,0-0.591c-0.12-0.13-0.805-0.285-1.099-0.593
		c-0.196-0.202-0.323-0.754-0.55-0.985c-1.201-1.228-2.324-2.48-3.48-3.354c-0.053-0.535,0.258-1.462-0.55-1.185
		c0-0.656,0-1.314,0-1.971c1.342-0.397,1.44-2.134,2.932-2.368c-0.061-0.788,0.255-1.173,0.916-1.184
		c1.518-1.784,2.853-3.766,4.762-5.129c0-0.328,0-0.658,0-0.986c2.298-1.472,3.093-4.561,5.13-6.313
		c0.673-2.891,2.86-4.152,2.931-7.693c0.09-0.624-0.909-0.073-0.732-0.788c-0.235,0.666-1.794-0.093-1.648,0.985
		c-3.434,1.629-5.021,5.244-7.877,7.496c0.133,0.603-0.316,0.58-0.183,1.184c-1.024-0.05-0.711,1.339-1.649,1.381
		c0,0.395,0,0.789,0,1.183c-1.953,0.594-1.789,3.466-3.48,4.341c0.354,1.367-0.903,1-0.55,2.366c-0.705,0.293-1.17,0.846-1.1,1.974
		c-1.245,0.038-0.524,2.196-1.647,2.366c-0.659,2.842-0.809,6.231-0.733,9.863c-0.184,0-0.366,0-0.549,0c0,1.645,0,3.289,0,4.932
		c-1.1,0-2.199,0-3.297,0c-0.175-0.668-0.482-1.19-1.283-1.184c-0.094-0.555,0.327-1.667-0.55-1.381
		c-0.258-0.904,0.58-2.991-0.549-2.958c-0.317-1.501,0.663-4.398-0.55-4.932c-0.12-1.187,0.241-2.89-0.184-3.749
		c-1.153,1.389-1.295,3.865-2.748,4.933c0.354,1.366-0.902,1.001-0.549,2.366c-0.705,0.294-1.17,0.845-1.1,1.973
		c-1.524,1.055-1.689,3.573-3.48,4.341c0,0.394,0,0.789,0,1.184c-1.021,0.809-2.098,1.556-2.381,3.156
		c-0.956-0.239-1.076,0.418-1.1,1.183c-0.941-0.225-1.308,0.171-1.099,1.185c-0.306,0-0.61,0-0.916,0
		c-0.551,1.38-2.536,1.214-3.114,2.564c-1.709,0-3.419,0-5.129,0c-0.841-1.594-3.289-1.454-3.479-3.749c-0.367,0-0.733,0-1.1,0
		c-0.31-1.574-0.802-2.95-1.832-3.747c-0.936-3.135-1.324-6.86-1.831-10.455c-0.712,1.01-1.561,1.871-2.017,3.155
		c-1.308,0.236-1.512,1.659-2.93,1.776c-0.137,1.958-2.486,1.53-2.931,3.155c-1.025,0.081-1.82,0.409-2.199,1.184
		c-2.137,0-4.273,0-6.411,0c0.261-1.004-0.922-0.452-1.465-0.591c-0.41-0.81-1.056-1.363-1.832-1.775
		c0.006-0.862-0.478-1.194-1.099-1.381c-0.054-0.534,0.257-1.461-0.55-1.185c0.143-0.876-0.244-1.184-0.184-1.973
		c-0.69-0.086-0.063,1.247-1.099,0.789c0,0.396,0,0.79,0,1.184c-0.881,0.433-1.535,1.109-1.648,2.367
		c-1.877,0.938-2.045,3.717-4.03,4.538c0,0.329,0,0.657,0,0.985c-1.021,0.348-1.062,1.75-2.198,1.973
		c-1.167,2.296-3.446,3.39-4.763,5.523c-0.944,0.233-1.854,0.504-2.198,1.382c-3.999,1.558-7.635-0.669-8.06-4.734
		c-0.029-0.231-0.334-0.167-0.55-0.197c-0.182-0.66,0.466-2.211-0.55-1.974c0-3.683,0-7.363,0-11.047c0.184,0,0.367,0,0.55,0
		c0-1.446,0-2.893,0-4.339c0.184,0,0.366,0,0.55,0c-0.074-4.42,1.349-7.228,1.831-11.047c0.184,0,0.367,0,0.55,0
		c0-0.657,0-1.314,0-1.973c1.292,0.403-0.192-2.18,1.1-1.776c0-0.788,0-1.578,0-2.366c1.015,0.237,0.368-1.313,0.549-1.973
		c0.244,0,0.489,0,0.732,0c0.396-1.671,0.995-5.543,2.198-6.114c-0.366-1.187,0.586-0.949,0.551-1.775
		c-1.087-0.313-2.215,1.031-2.382,2.366c-1.607,1.358-3.188,2.748-4.03,4.931c-1.136,0.223-1.177,1.626-2.198,1.974
		c0,0.328,0,0.658,0,0.986c-2.215,1.56-2.906,4.761-5.129,6.312c0,0.396,0,0.789,0,1.184c-2.018,0.918-2.102,3.919-4.03,4.932
		c0,0.396,0,0.79,0,1.186c-2.168,1.214-2.437,4.477-4.579,5.72c0,0.394,0,0.789,0,1.183c-0.86-0.334-0.239,0.928-1.1,0.592
		c0,0.396,0,0.79,0,1.184c-0.243,0-0.488,0-0.732,0c-0.299,2.368-3.927,3.105-5.129,1.185c0-0.329,0-0.657,0-0.986
		c-0.03-0.231-0.334-0.167-0.549-0.198c-1.424-8.179,0.49-16.989,1.282-24.657c1.291,0.405-0.192-2.18,1.099-1.776
		c0-0.657,0-1.314,0-1.972c-0.518-0.163-0.475,0.277-0.916,0.197c-1.46,2.833-4.295,4.185-5.496,7.298
		c-1.188,0.892-2.407,1.749-2.748,3.552c-2.315,1.451-3.063,4.592-5.129,6.313c0,0.395,0,0.789,0,1.183
		c-1.73,0.44-1.465,3.026-2.931,3.748c0.353,1.368-0.903,1.001-0.549,2.367c-0.621,0.187-1.105,0.52-1.099,1.382
		c-0.796-0.002-1.25,0.363-1.282,1.183c-0.733,0-1.465,0-2.198,0c-0.005-1.114-0.748-0.829-1.099-1.774
		c-0.093-0.25-0.477-0.047-0.549-0.198c-0.686-1.423-0.41-3.274-0.733-5.521c-0.944,0.431-1.14,1.663-2.198,1.971
		c0,0.396,0,0.789,0,1.185c-1.784,1.366-3.358,2.96-4.58,4.932c-0.305,0-0.61,0-0.916,0c-2.033,1.953-4.3,3.655-8.06,3.748
		c-0.214,0.032-0.154,0.359-0.184,0.591c-1.526,0-3.053,0-4.579,0c0.084-1.011-1.04-0.722-1.832-0.789
		c-0.652-0.678-1.416-1.236-2.748-1.183c-0.388-0.832-0.825-1.61-1.832-1.776c-0.63-1.163-1.088-2.51-2.198-3.156
		c-0.053-0.534,0.258-1.46-0.55-1.183c0.365-1.775-0.915-1.777-0.549-3.551c-0.882,0.3-1.67,0.7-1.832,1.774
		c-0.919-0.003-1.403,0.463-1.648,1.185c-0.306,0-0.611,0-0.916,0c-1.567,1.993-4.332,2.699-7.327,3.155
		c-0.215,0.032-0.155,0.36-0.183,0.592c-0.916,0-1.832,0-2.748,0c-1.883,3.825-3.991,7.407-7.694,9.272c0,0.395,0,0.789,0,1.184
		c-1.384-0.045-2.37,0.34-2.931,1.183c-2.442,0-4.885,0-7.327,0c0.265-0.943-0.766-0.489-1.283-0.592
		c0.283-0.99-0.565-0.341-0.916-0.591c-0.086-0.061,0.072-0.508,0-0.592c-0.062-0.073-0.979-0.253-1.283-0.592
		c-0.316-0.354-0.266-1.58-1.099-1.382c0.134-1.129-0.38-1.563-1.099-1.775c-0.374-2.556-1.405-4.403-1.283-7.496
		c-0.86-0.335-0.238,0.929-1.099,0.592c0,0.462,0,0.92,0,1.382c-0.86-0.335-0.239,0.927-1.099,0.591c0,0.461,0,0.921,0,1.382
		c-1.111,0.645-1.51,2.056-1.832,3.55c-1.264,0.679-1.922,2.007-2.198,3.749c-0.938-0.022-0.71,1.207-1.648,1.183
		c-0.499,2.358-2.611,2.976-3.48,4.933c-1.158,0.002-1.957,0.392-2.381,1.184c-1.489,0.226-2.907,0.226-4.396,0
		c0.266-0.944-0.766-0.49-1.283-0.593c0.258-0.868-0.603-0.534-1.099-0.591c-0.122-0.658-0.488-1.054-1.099-1.184
		c-0.498-1.371-0.779-2.976-1.832-3.749c0-4.932,0-9.863,0-14.794c0.183,0,0.367,0,0.549,0c0.076-6.296,1.712-10.913,1.832-17.162
		c0.183,0,0.366,0,0.55,0c0.325-1.688-0.676-4.806,0.549-5.524c0-0.591,0-1.183,0-1.774c-0.074-0.381-0.839-0.018-0.549-0.789
		c-0.55,0-1.099,0-1.649,0c-0.215,0.032-0.154,0.358-0.183,0.592c-2.92,0.735-3.816,3.649-6.229,4.932c0,0.46,0,0.921,0,1.381
		c-2.034,1.098-2.158,4.25-4.03,5.523c-0.053,0.534,0.258,1.46-0.549,1.184c0.365,1.773-0.915,1.776-0.55,3.55
		c-1.196-0.433,0.098,1.815-1.099,1.382c-0.363,3.751-0.106,8.17-0.183,12.23c-0.665,1.149-2.051,1.799-3.297,0.789
		c-0.043-0.874-0.47-1.334-1.282-1.382c-0.371-1.44-0.356-3.298-0.916-4.536c-0.232-2.382,0.239-5.52-0.733-7.102
		c-0.719,0.212-1.233,0.644-1.099,1.774c-1.737,1.616-3.854,2.82-5.129,4.933c-0.367,0-0.733,0-1.099,0
		c-0.579,1.218-2.511,0.978-2.931,2.366c-0.737-0.135-1.046,0.19-1.649,0.198c-0.188,3.06-0.814,6.48-1.832,8.68
		c-0.037,0.079-0.484-0.063-0.55,0c-0.198,0.191,0.362,1.413-0.549,0.986c0,0.46,0,0.92,0,1.381c-2.116,0.812-2.136,3.881-4.58,4.34
		c0,0.395,0,0.789,0,1.184c-0.497,0.058-1.356-0.277-1.099,0.592c-0.305,0-0.611,0-0.916,0c-0.848,2.159-3.585,2.024-5.312,3.155
		c-0.17,0.112-0.189,0.299-0.183,0.593c-0.576,0.169-1.894-0.462-1.649,0.592c-2.259,0-4.518,0-6.778,0
		c0.258-0.869-0.603-0.534-1.099-0.592c-0.585-1.08-1.417-1.893-2.381-2.564c-0.053-0.534,0.257-1.461-0.55-1.184
		c0.055-1.954-0.923-5.914,0.55-6.905c0-0.524,0-1.051,0-1.577c1.074-0.947,2.051-2,2.931-3.156
		c1.761-0.536,3.041-1.591,4.946-1.973c0.214-0.032,0.155-0.36,0.184-0.592c0.697-0.237,2.354,0.563,2.198-0.593
		c0.576-0.169,1.894,0.463,1.649-0.591c2.056,0.439,2.441-0.922,4.396-0.593c0.173-0.403,0.45-0.697,0.916-0.789
		c-0.329-7.667-5.032-10.625-11.54-11.639c0-0.196,0-0.395,0-0.592c-0.794,0-1.588,0-2.381,0c0.245-1.051-1.074-0.421-1.648-0.592
		c-0.384-0.836-0.898-1.531-1.649-1.972c-0.005-0.52,0.17-1.237-0.55-0.986c-0.053-0.6,0.029-1.347-0.549-1.38
		c0.08-2.146-0.213-5.208,1.099-6.117c0-0.395,0-0.788,0-1.184c0.705-0.292,1.17-0.844,1.099-1.972
		c1.148-0.737,2.063-1.724,2.748-2.96c0.783-0.273,1.561-0.555,1.832-1.38c1.042-0.062,1.951-0.267,2.198-1.184
		c0.517-0.102,1.548,0.352,1.282-0.592c0.697-0.236,2.354,0.563,2.198-0.592c1.527,0,3.053,0,4.58,0
		c-0.221,1.093,1.219,0.396,1.832,0.592c-0.257,0.869,0.604,0.534,1.099,0.592c0.216,0.819,0.719,1.33,1.649,1.382
		c0.502,1.275-0.098,2.158-0.549,2.958c-0.744,0.253-2.499-0.587-2.381,0.592c-0.672,0-1.344,0-2.015,0
		c-1.423,1.426-4.191,1.404-5.313,3.155c-0.305,0-0.61,0-0.916,0c-1.6,2.025-4.287,2.879-4.762,6.115c-0.184,0-0.367,0-0.55,0
		c0.426,3.027,4.021,2.64,6.778,3.157c0,0.197,0,0.395,0,0.591c1.343,0,2.687,0,4.03,0c-0.156,1.155,1.501,0.357,2.198,0.592
		c-0.221,1.094,1.219,0.396,1.832,0.592c-0.257,0.87,0.603,0.536,1.1,0.592c0,0.197,0,0.396,0,0.592
		c2.012,0.135,2.579,1.825,4.03,2.565c0.339,2.33,2.471,2.731,2.381,5.523c0.496-0.058,1.356,0.276,1.099-0.593
		c2.174-0.748,4.052-1.816,5.129-3.748c0.305,0,0.611,0,0.916,0c1.191-1.873,3.104-2.97,3.663-5.523
		c0.808,0.277,0.497-0.647,0.55-1.183c2.494-1.868,1.431-6.3,1.832-10.061c0.333-3.118,0.999-5.915,1.099-9.074
		c0.183,0,0.366,0,0.549,0c0-1.25,0-2.499,0-3.748c1.094,0.126,0.315-1.765,0.549-2.564c1.073,0.168,0.331-1.616,0.55-2.367
		c0.183,0,0.366,0,0.55,0c0-0.987,0-1.973,0-2.959c0.183,0,0.366,0,0.549,0c0.166-2.583,1.323-4.098,1.283-6.904
		c1.135,0.433-0.036-1.617,1.099-1.184c-0.331-1.803,0.942-1.879,0.549-3.748c1.135,0.433-0.036-1.617,1.099-1.184
		c0-0.592,0-1.184,0-1.776c1.561-1.081,1.335-4.085,2.931-5.128c-0.116-1.703,1.215-1.848,1.099-3.551
		c1.761-0.8,1.46-3.82,3.481-4.34c0-0.395,0-0.789,0-1.183c0.86,0.334,0.238-0.927,1.099-0.592c0-0.46,0-0.92,0-1.38
		c1.723-0.578,2.076-2.631,3.847-3.157c0.471-1.004,1.581-1.323,2.015-2.367c0.496-0.058,1.356,0.277,1.099-0.593
		c1.025-0.079,1.82-0.407,2.199-1.183c3.176-0.447,7.232-1.104,10.258,0c-0.257,0.87,0.603,0.535,1.099,0.592
		c0.647,0.947,1.391,1.79,2.381,2.367c0.053,0.535-0.258,1.461,0.55,1.184c0.094,0.556-0.327,1.667,0.549,1.381
		c0.267,2.406,0.267,5.485,0,7.891c-0.183,0-0.366,0-0.549,0c0,0.854,0,1.709,0,2.563c-0.978-0.263-0.393,1.156-0.55,1.776
		c-0.735,0.458-1.097,1.318-1.099,2.565c-1.51,1.268-1.755,3.896-3.48,4.932c0,0.395,0,0.789,0,1.184
		c-1.992,1.142-2.358,4.036-4.58,4.932c0,0.395,0,0.789,0,1.184c-2.907,2.655-5.594,5.549-8.06,8.68c-0.305,0-0.61,0-0.916,0
		c-1.242,2.016-3.539,2.896-4.763,4.932c-0.306,0-0.61,0-0.916,0c-1.346,2.167-4.183,2.729-5.495,4.932
		c-1.443-0.37-1.155,1.123-2.199,1.184c-0.234,0.801,0.544,2.69-0.549,2.565c0,1.051,0,2.104,0,3.154c-0.184,0-0.366,0-0.55,0
		c0,1.184,0,2.367,0,3.553c-0.183,0-0.366,0-0.549,0C67.756,99.616,68.15,101.881,67.285,102.792z M96.96,40.652
		c-2.186-0.315-3.384,0.434-5.129,0.592c0.257,0.87-0.603,0.534-1.099,0.592c-0.197,0.774-0.599,1.328-1.649,1.184
		c-0.516,1.154-1.366,1.948-2.381,2.565c0,0.395,0,0.789,0,1.183c-1.827,0.531-1.966,2.88-3.48,3.748c0,0.394,0,0.789,0,1.184
		c-0.861-0.335-0.239,0.926-1.099,0.591c0,0.396,0,0.79,0,1.184c-1.873,1.074-1.778,4.266-3.48,5.523
		c0.496,0.906-0.575,1.446-0.549,1.381c-0.297,0.763-0.14,2.081-1.099,2.367c0,0.592,0,1.184,0,1.775
		c-1.718,1.24-1.26,4.823-2.931,6.114c-0.182,0.66,0.465,2.212-0.55,1.974c-0.181,0.659,0.466,2.211-0.549,1.973
		c-0.157,0.619,0.428,2.039-0.549,1.775c0,0.788,0,1.578,0,2.367c-0.184,0-0.367,0-0.55,0c-0.199,1.891-0.768,3.381-1.099,5.128
		c0.305,0,0.611,0,0.917,0c0.357-0.733,0.621-1.565,1.831-1.38c0.988-1.239,1.765-2.703,3.481-3.156
		c0.77-1.209,1.547-2.411,2.931-2.959c1.781-2.553,3.857-4.789,6.228-6.708c0.509-1.491,1.625-2.327,2.748-3.156
		c0.14-1.295,0.88-1.946,1.832-2.368c-0.006-0.862,0.479-1.194,1.099-1.38c0-0.395,0-0.789,0-1.184
		c2.107-0.822,2.098-3.922,4.03-4.932c-0.496-0.906,0.575-1.446,0.55-1.382c0.297-0.762,0.14-2.079,1.099-2.367
		C98.443,49.271,99.967,43.063,96.96,40.652z M323.737,52.29c-0.246,0.722-0.729,1.188-1.649,1.184
		c-0.381,1.496-2.218,1.425-2.381,3.157c-1.779,0.516-1.879,2.842-3.479,3.55c0,0.461,0,0.921,0,1.381
		c-1.938,1.202-2.702,3.665-3.48,6.115c-0.861-0.335-0.239,0.927-1.1,0.592c0.205,1.864-1.209,1.985-1.1,3.748
		c-1.76,0.998-1.212,4.48-2.931,5.523c0,0.592,0,1.184,0,1.775c-1.196-0.435,0.098,1.814-1.099,1.381
		c0.408,1.688-0.814,1.621-0.55,3.155c1.164,0.202,0.889-1.146,2.199-0.788c1.448-2.254,4.641-2.629,6.044-4.932
		c0.306,0,0.611,0,0.915,0c0.198-0.775,0.599-1.328,1.648-1.184c1.521-2.178,3.894-3.436,5.496-5.523c0.245,0,0.489,0,0.733,0
		c1.37-2.667,4.213-3.748,5.312-6.707c0.861,0.335,0.238-0.927,1.1-0.592c-0.006-0.862,0.479-1.194,1.099-1.38
		c0-0.395,0-0.789,0-1.184c1.926-1.274,2.337-5.994,1.283-8.68c-0.801,0.007-1.109-0.515-1.283-1.183c-1.709,0-3.419,0-5.129,0
		C325.632,52.752,324.313,52.121,323.737,52.29z M118.026,84.84c-1.931,0.092-3.303-0.191-4.396,0.789
		c-0.3,0.268-0.282,1.019-1.099,0.592c-0.481,1.126-1.463,1.713-2.382,2.367c0.071,1.128-0.394,1.68-1.099,1.972
		c0,0.396,0,0.789,0,1.185c-0.809,0.236-0.998,1.809-1.099,2.762c-0.178,1.67,0.133,3.572,0,5.326
		c0.592-0.243,0.14,0.639,0.732,0.395c1.639-0.932,2.046-3.189,4.213-3.552c1.732-2.905,6.752-2.746,10.991-2.367
		c0.685,1.104,2.458,1.036,2.381,2.96c-1.93,1.274-3.87,2.54-5.862,3.747c-1.653,2.299-3.637,4.237-5.679,6.115
		c0,0.462,0,0.922,0,1.381c-1.061-0.419-0.038,1.406-1.099,0.988c0.375,1.52-0.869,1.299-0.732,2.563
		c0.812,0.048,1.239,0.508,1.282,1.381c0.916,0.855,2.422,1.075,2.931,2.367c1.025,0.079,1.82,0.409,2.198,1.185
		c0.743,0.253,2.499-0.587,2.381,0.592c1.465,0,2.931,0,4.396,0c0.258-1.234,0.29-2.714,1.282-3.157c0-0.788,0-1.577,0-2.367
		c1.328,0.379-0.229-2.349,1.099-1.972c0.257-0.905-0.58-2.992,0.549-2.96c0-1.643,0-3.288,0-4.932c0.183,0,0.367,0,0.55,0
		c0-1.643,0-3.287,0-4.931c-1.129,0.032-0.292-2.054-0.55-2.96c-1.015,0.238-0.368-1.313-0.549-1.972
		c-0.72-0.409-1.025-1.264-1.099-2.368c-1.021-0.346-1.249-1.547-1.649-2.563c-0.478,0.055-0.916,0.066-0.733-0.592
		c-0.366,0-0.732,0-1.099,0C122.921,84.761,120.155,84.738,118.026,84.84z M155.944,90.363c-0.153,1.083-0.876,1.555-1.648,1.973
		c-0.311,1.77-1.631,2.452-1.832,4.339c-0.183,0-0.367,0-0.549,0c0,0.395,0,0.79,0,1.186c1.228-0.126,1.497-1.282,2.931-1.186
		c0.41-0.872,1.104-1.585,1.832-2.367c0.955-1.024,1.785-2.319,2.748-2.563c-0.071-1.128,0.394-1.681,1.099-1.973
		c0-0.394,0-0.789,0-1.184c-0.476,0.118-0.66-0.08-0.55-0.592c-0.366,0-0.732,0-1.099,0
		C158.188,89.096,156.92,89.572,155.944,90.363z M262.738,91.744c-0.306,0.001-0.61,0-0.916,0c-1.515,2.05-3.051,4.078-5.129,5.523
		c0,0.395,0,0.788,0,1.184c-2.067,1.521-2.524,4.777-4.58,6.312c0,0.593,0,1.184,0,1.775c-0.859-0.334-0.238,0.927-1.099,0.592
		c0,0.592,0,1.184,0,1.775c-1.111,0.171-0.966,2.16-1.282,3.156c-0.494,1.561-1.474,3.071-1.099,4.933c-0.184,0-0.367,0-0.55,0
		c0,1.25,0,2.499,0,3.747c0.807-0.276,0.496,0.649,0.55,1.184c0.479-0.055,0.916-0.065,0.732,0.593c1.099,0,2.198,0,3.297,0
		c-0.266-0.943,0.767-0.491,1.283-0.593c-0.233-0.774,0.432-0.586,0.914-0.591c0.301-0.795,0.906-1.262,1.833-1.382
		c0-0.326,0-0.657,0-0.985c0.561,0.143,0.539-0.34,1.1-0.198c0.201-0.966,0.469-1.86,1.648-1.774
		c0.926-1.896,1.935-3.702,3.479-4.933c0.322-6.031,2.613-9.942,3.48-15.387c1.368-0.762,0.842-3.565,2.198-4.339
		c-0.127-0.992,0.311-1.375,0.184-2.368C266.268,89.25,263.703,90.139,262.738,91.744z M355.428,91.744c-0.244,0-0.489,0-0.732,0
		c-1.063,1.288-2.095,2.611-3.481,3.551c0.007,0.861-0.479,1.193-1.099,1.38c-0.174,1.324-1.037,1.909-1.832,2.565
		c0.004,0.988-0.429,1.51-1.099,1.774c0,0.396,0,0.789,0,1.184c-1.451,0.478-1.617,2.337-2.198,3.748c-0.244,0-0.489,0-0.732,0
		c-0.054,0.537,0.257,1.463-0.55,1.184c0,0.592,0,1.184,0,1.775c-1.136-0.433,0.036,1.617-1.1,1.185c0,0.658,0,1.314,0,1.972
		c-1.449,0.61-0.86,3.286-1.282,4.933c-0.313,1.225-0.553,3.423,0,4.931c0.477-0.117,0.66,0.08,0.55,0.593c1.222,0,2.442,0,3.664,0
		c0.378-0.775,1.173-1.104,2.197-1.184c0.706-2.002,3.098-2.188,3.664-4.34c0.306,0,0.61,0,0.916,0c0-0.395,0-0.788,0-1.185
		c1.521-0.796,1.859-2.862,3.297-3.748c0.216-0.885-0.243-2.497,0.732-2.563c-0.406-2.477,0.868-3.144,0.551-5.524
		c1.29,0.403-0.193-2.18,1.098-1.776c0-0.788,0-1.577,0-2.366c0.184,0,0.367,0,0.551,0c0.313-2.423,1.588-3.814,1.832-6.313
		c0.183,0,0.365,0,0.548,0c0.055-0.536-0.256-1.462,0.551-1.184c0-0.854,0-1.71,0-2.564
		C358.574,89.478,356.535,90.109,355.428,91.744z M110.699,116.402c-0.192,0.639,0.509,2.034-0.55,1.973c0,2.828,0,5.654,0,8.481
		c1.299,1.165,2.071,2.9,4.396,2.959c1.605-0.571,3.223-1.133,4.763-1.774c0.105-0.348-0.221-1.159,0.184-1.185
		c0.366,0,0.732,0,1.099,0c0.461-1.146,1.226-1.967,2.198-2.564c-0.003-0.989,0.429-1.511,1.099-1.774c0-0.593,0-1.184,0-1.776
		c-0.733,0-1.466,0-2.198,0c0-0.195,0-0.394,0-0.592c-2.45-0.32-4.712-0.843-5.862-2.563c-1.752-0.217-2.796-1.198-3.48-2.564
		c-0.305,0-0.61,0-0.916,0C111.677,115.598,110.649,116.567,110.699,116.402z M29.916,125.673c-0.481,0.863-1.383,1.272-2.748,1.184
		c-0.392,1.217-2.258,2.135-2.747,3.749c-0.47,1.547-0.401,3.727,0.366,5.129c0,0.329,0,0.657,0,0.986
		c1.584,0.699,2.911,1.914,5.313,1.184c0.378-0.775,1.172-1.105,2.198-1.184c1.252-1.545,2.438-3.16,4.03-4.341
		c0.63-3.233,3.159-5.365,2.748-9.073C35.719,123.769,33.203,125.137,29.916,125.673z"/>
</g>
<path fill="#070707" d="M237.667,73.422c0,0-6.667-12.517-5.667-28.393c-0.333,0.916,2-18.624,9.334-25.951
	c0.333,0.61,10.332-15.265,27.666-1.526c0.334,0.916,12.666,10.38,13,30.53c-0.333-0.305,2.001,13.739-1.666,28.698
	c-0.334,0,0,8.549-8,4.58c0,0-9.334-2.748-24,6.412c-0.334,0-6,0.306-6.667-3.664C242,84.718,237.667,73.422,237.667,73.422z"/>
<path fill="#070707" d="M245.667,141.81l33,2.137c0,0,4.334,25.95-10.333,32.057c-0.334,0.611-16.668,10.38-26.334-10.991
	C241.667,165.623,240.645,141.484,245.667,141.81z"/>
</svg>
