<?xml version="1.0" encoding="utf-8"?>
<!-- Generator: Adobe Illustrator 16.0.0, SVG Export Plug-In . SVG Version: 6.00 Build 0)  -->
<!DOCTYPE svg PUBLIC "-//W3C//DTD SVG 1.1//EN" "http://www.w3.org/Graphics/SVG/1.1/DTD/svg11.dtd">
<svg version="1.1" id="Layer_4" xmlns="http://www.w3.org/2000/svg" xmlns:xlink="http://www.w3.org/1999/xlink" x="0px" y="0px"
	 width="605px" height="179px" viewBox="0 0 605 179" enable-background="new 0 0 605 179" xml:space="preserve">
<g>
	<path fill-rule="evenodd" clip-rule="evenodd" fill="#FFFFFF" d="M14.872,28.212c0.898-2.534,2.505-4.159,5.37-4.061
		c0.665,0.023,1.352,0.182,1.977,0.416c3.426,1.28,6.806,2.689,10.256,3.896c9.346,3.267,14.486,9.888,15.234,19.647
		c0.736,9.597,0.927,19.235,1.559,28.841c0.334,5.089,1.096,10.149,1.674,15.303c1.531,0,2.802,0.061,4.066-0.01
		c6.017-0.338,11.977,0.303,17.933,1.011c7.896,0.939,15.782,1.934,23.468,4.08c6.407,1.788,12.715,3.808,18.107,7.908
		c0.647,0.492,1.313,1.077,1.697,1.771c0.535,0.966-0.102,1.984-1.212,2.069c-0.663,0.051-1.363-0.028-2.009-0.192
		c-8.671-2.193-17.331-4.43-26.003-6.619c-5.126-1.294-10.327-2.248-15.624-2.226c-6.469,0.028-12.872,0.688-18.742,3.729
		c-3.763,1.95-6.486,5.119-9.187,8.372c20.124-6.825,39.979-5.083,59.906,1.652c-0.372,0.192-0.583,0.314-0.803,0.413
		c-4.492,2.014-9.086,1.853-13.85,1.047c-9.445-1.597-18.931-1.591-28.409-0.043c-1.019,0.167-2.121-0.116-3.176-0.253
		c-0.528-0.068-1.039-0.279-1.884-0.52c1.348,1.694,2.301,3.21,2.32,5.101c0.006,0.594-0.048,1.201-0.171,1.781
		c-1.426,6.717-8.422,11.133-15.048,9.512c-2.975-0.727-4.41-2.752-4.271-6.176c0.053-1.305,0.278-2.605,0.442-4.055
		c0.058,0.092,0.031-0.012-0.027-0.035c-2.86-1.148-2.978-3.824-3.367-6.258c-0.95-5.948,0.355-11.516,3.174-16.762
		c0.321-0.597,0.861-1.199,1.452-1.507c2.088-1.086,2.794-2.803,2.71-5.041c-0.261-6.987-0.497-13.976-0.718-20.965
		c-0.229-7.228-0.288-14.466-0.691-21.685c-0.286-5.116-2.891-9.07-7.262-11.763c-1.593-0.981-3.31-1.762-4.973-2.628
		c-1.288-0.671-2.485-0.545-3.724,0.244c-3.126,1.991-6.314,1.613-8.775-1.054c-0.6-0.65-0.954-1.528-1.42-2.302
		C14.872,29.972,14.872,29.092,14.872,28.212z M54.197,119.848c0.049-2.084-0.666-3.262-2.271-3.738
		c-4.68-1.392-9.053,2.332-8.399,7.152c0.3,2.213,1.399,3.223,3.644,3.346C51.414,126.838,54.093,124.262,54.197,119.848z"/>
	<path fill-rule="evenodd" clip-rule="evenodd" fill="#FFFFFF" d="M584.392,137.891c-3.56,2.605-6.826,5.758-11.226,6.914
		c-4.962,1.305-9.749,0.172-14.168-2.072c-5.558-2.82-11.08-5.688-16.952-7.807c-2.551-0.922-5.152-1.703-7.69-2.654
		c-0.714-0.268-1.287-0.912-1.924-1.385c0.603-0.471,1.141-1.121,1.824-1.369c0.834-0.305,1.789-0.352,2.694-0.373
		c7.06-0.172,13.786,1.445,20.358,3.857c2.848,1.045,5.76,1.949,8.513,3.205c3.753,1.713,7.574,1.703,11.501,1.084
		c1.379-0.217,2.76-0.508,4.146-0.561c0.968-0.035,1.948,0.281,2.923,0.441C584.392,137.412,584.392,137.652,584.392,137.891z"/>
	<path fill-rule="evenodd" clip-rule="evenodd" fill="#FFFFFF" d="M568.049,94.634c-0.126,4.646-0.482,9.277-1.989,13.706
		c-3.387,9.953-10.544,15.672-20.662,17.752c-5.832,1.199-11.651,0.756-17.2-1.494c-7.041-2.854-12.039-7.914-14.529-15.064
		c-3.669-10.539-3.795-21.271,0.275-31.686c3.875-9.911,11.725-15.05,22.171-16.271c5.539-0.647,10.96-0.021,16.025,2.431
		c8.287,4.011,13.117,10.779,14.922,19.673c0.726,3.578,0.879,7.273,1.293,10.915C568.253,94.608,568.15,94.621,568.049,94.634z
		 M557.493,92.37c-0.198-1.521-0.38-4.57-1.025-7.518c-1.286-5.867-4.376-10.561-9.969-13.169c-8.966-4.179-19.149,0.238-22.8,9.797
		c-1.847,4.837-2.12,9.893-1.91,14.991c0.16,3.895,0.809,7.7,2.406,11.3c2.848,6.416,9.459,10.598,16.012,10.146
		c7.506-0.518,12.428-4.503,15.19-11.336C557.042,102.516,557.348,98.207,557.493,92.37z"/>
	<path fill-rule="evenodd" clip-rule="evenodd" fill="#FFFFFF" d="M110.627,93.936c1.362-2.194,2.62-4.221,3.868-6.232
		c-2.458-2.392-9.109-5.917-12.952-6.861c-2.021,2.919-4.053,5.878-6.12,8.813c-0.287,0.407-0.743,0.695-1.121,1.039
		c0.053-0.495,0.004-1.03,0.177-1.48c1.249-3.238,2.542-6.459,3.95-10.013c-3.325-1.074-6.594-2.129-9.957-3.215
		c-1.117,2.563-2.136,4.896-3.146,7.229c-0.234,0.541-0.445,1.081-1.237,0.477c0.43-2.598,0.866-5.226,1.331-8.03
		c-3.818-0.4-7.577-0.788-11.335-1.19c-3.721-0.398-7.439-0.813-11.196-1.476c1.106-0.204,2.208-0.431,3.319-0.608
		c2.366-0.377,4.733-0.746,7.106-1.08c0.693-0.099,0.996-0.383,1.13-1.104c0.437-2.347,0.969-4.677,1.481-7.095
		c-2.984-0.496-5.854-0.963-8.719-1.461c-0.338-0.059-0.647-0.291-0.969-0.442c0.359-0.131,0.716-0.371,1.077-0.375
		c2.759-0.032,5.519-0.058,8.276,0.006c0.888,0.02,1.229-0.303,1.501-1.106c0.995-2.94,2.072-5.852,3.186-8.959
		c-0.586,0-1.004,0-1.423,0c-7.117,0-14.235,0-21.352,0c-0.24,0-0.497,0.054-0.715-0.015c-0.252-0.079-0.47-0.265-0.703-0.404
		c0.225-0.167,0.435-0.452,0.675-0.48c1.428-0.172,2.863-0.278,4.294-0.417c13.958-1.356,27.906-2.939,41.958-2.771
		c6.665,0.08,13.352,0.2,19.906,1.682c4.145,0.937,7.894,2.816,11.414,5.119c3.501,2.291,5.632,6.968,3.316,11.756
		c-3.234,6.687-7.611,12.483-12.937,17.561c-3.785,3.609-7.83,6.945-11.766,10.395C112.363,93.705,111.771,94.257,110.627,93.936z
		 M96.668,61.844c3.324,0.578,6.472,1.09,9.602,1.695c0.799,0.154,1.208-0.073,1.695-0.667c2.435-2.963,4.925-5.88,7.393-8.816
		c0.113-0.135,0.194-0.297,0.353-0.545c-3.458-0.455-6.774-0.901-10.095-1.31c-0.315-0.039-0.755,0.057-0.975,0.263
		C101.686,55.223,98.917,58.146,96.668,61.844z M98.458,51.541c-3.455-0.261-6.592-0.457-9.72-0.754
		c-1.247-0.119-2.023,0.329-2.655,1.365c-1.599,2.62-3.26,5.201-4.89,7.802c-0.156,0.25-0.262,0.532-0.537,1.1
		c3.425,0,6.612,0.016,9.798-0.023c0.36-0.004,0.884-0.225,1.049-0.51C93.369,57.303,95.421,54.236,98.458,51.541z M105.354,75.66
		c4.556,1.965,9.002,3.881,13.59,5.859c1.042-1.743,2.218-3.71,3.404-5.694c-0.181-0.155-0.289-0.273-0.42-0.356
		c-3.469-2.196-7.303-3.554-11.173-4.815c-0.269-0.087-0.758,0.104-0.978,0.329C108.299,72.494,106.867,74.049,105.354,75.66z
		 M115.04,65.186c1.585,0.608,2.848,1.073,4.097,1.576c1.292,0.52,2.562,1.101,3.862,1.602c0.388,0.15,0.863,0.221,1.269,0.154
		c2.836-0.468,4.606-3.417,3.706-6.152c-0.706-2.144-2.207-3.661-4.02-4.894c-0.216-0.147-0.746-0.161-0.911-0.005
		C120.394,59.979,117.779,62.53,115.04,65.186z M76.024,71.135c3.625,0,7.006,0.012,10.388-0.02c0.322-0.003,0.84-0.194,0.932-0.429
		c0.719-1.842,1.355-3.715,2.095-5.798c-3.286-0.425-6.398-0.843-9.517-1.203c-0.232-0.027-0.629,0.305-0.751,0.563
		C78.137,66.441,77.15,68.654,76.024,71.135z M103.967,68.283c-3.206-0.739-6.303-1.464-9.409-2.148
		c-0.238-0.053-0.672,0.107-0.794,0.305c-1.052,1.708-2.052,3.448-3.185,5.375c3.43,0.808,6.481,1.537,9.542,2.222
		c0.214,0.048,0.614-0.172,0.739-0.381C101.898,71.921,102.891,70.158,103.967,68.283z"/>
	<path fill-rule="evenodd" clip-rule="evenodd" fill="#FFFFFF" d="M268.355,93.843c4.431,0,8.813,0,13.319,0c0,1.645,0,3.3,0,5.314
		c0.725-0.771,1.251-1.272,1.709-1.829c4.951-6.011,17.208-6.348,22.354,1.87c2.242,3.58,3.436,7.453,3.623,11.641
		c0.196,4.385-0.066,8.708-2.039,12.757c-5.003,10.264-18.064,10.406-23.989,4.498c-0.108-0.109-0.242-0.191-0.582-0.457
		c0,3.084,0,5.971,0,8.855c0,2.91,0,5.82,0,8.803c-4.843,0-9.578,0-14.396,0C268.355,128.154,268.355,111.033,268.355,93.843z
		 M282.428,112.749c0.438,1.629,0.712,3.597,1.499,5.331c1.031,2.277,3.131,3.301,5.601,3.158c2.556-0.146,4.217-1.68,4.92-4.08
		c0.916-3.128,0.961-6.32-0.003-9.453c-0.793-2.577-2.864-4.143-5.259-4.174c-2.678-0.035-4.882,1.428-5.725,4.065
		C282.968,109.136,282.809,110.782,282.428,112.749z"/>
	<path fill-rule="evenodd" clip-rule="evenodd" fill="#FFFFFF" d="M364.365,79.621c4.754,0,9.421,0,14.205,0
		c0,6.19,0,12.335,0,18.833c0.622-0.565,1.015-0.914,1.4-1.272c4.248-3.947,9.308-4.941,14.821-3.853
		c4.633,0.915,7.804,4.501,8.607,9.482c0.24,1.492,0.367,3.018,0.375,4.529c0.037,7.438,0.017,14.876,0.017,22.313
		c0,0.471,0,0.943,0,1.453c-4.872,0-9.61,0-14.479,0c0-0.49,0-0.92,0-1.348c0-6.398,0.002-12.797-0.002-19.194
		c-0.001-0.56,0-1.122-0.057-1.677c-0.272-2.648-1.623-4.271-3.795-4.589c-2.75-0.404-5.181,0.765-5.969,3.282
		c-0.575,1.833-0.821,3.829-0.86,5.76c-0.11,5.436-0.039,10.877-0.039,16.314c0,0.471,0,0.941,0,1.463c-4.801,0-9.467,0-14.226,0
		C364.365,113.978,364.365,96.851,364.365,79.621z"/>
	<path fill-rule="evenodd" clip-rule="evenodd" fill="#FFFFFF" d="M172.288,79.631c4.761,0,9.427,0,14.19,0
		c0,6.198,0,12.34,0,18.817c0.512-0.458,0.822-0.716,1.111-0.996c4.232-4.106,9.334-5.223,14.961-4.151
		c4.893,0.932,8.147,4.733,8.86,10.075c0.169,1.265,0.282,2.547,0.287,3.821c0.026,7.679,0.014,15.357,0.011,23.037
		c0,0.271-0.03,0.541-0.049,0.871c-4.8,0-9.535,0-14.387,0c0-0.48,0-0.908,0-1.338c0-6.238,0.008-12.479-0.009-18.717
		c-0.002-0.875-0.068-1.759-0.202-2.623c-0.373-2.398-1.575-3.753-3.567-4.111c-2.468-0.444-4.925,0.47-5.773,2.617
		c-0.702,1.775-1.109,3.771-1.158,5.682c-0.146,5.715-0.053,11.438-0.053,17.156c0,0.428,0,0.855,0,1.34c-4.794,0-9.46,0-14.222,0
		C172.288,113.977,172.288,96.847,172.288,79.631z"/>
	<path fill-rule="evenodd" clip-rule="evenodd" fill="#FFFFFF" d="M315.68,104.503c1.102-6.034,4.598-9.567,10.734-10.752
		c6.43-1.24,12.912-1.186,19.313,0.036c5.992,1.145,9.361,4.777,9.88,11.832c0.354,4.814,0.1,9.674,0.1,14.512
		c0,3.713-0.256,7.461,1.908,11.039c-0.699,0-1.156,0-1.612,0c-3.68,0-7.359-0.018-11.039,0.018
		c-0.694,0.006-1.137-0.182-1.367-0.836c-0.405-1.15-0.817-2.297-1.259-3.533c-2.278,2.096-4.794,3.736-7.84,4.434
		c-4.157,0.949-8.333,1.188-12.437-0.102c-7.355-2.314-9.025-9.537-6.438-14.918c0.882-1.834,2.268-3.312,4.16-3.964
		c3.044-1.048,6.177-1.844,9.29-2.677c3.813-1.021,7.645-1.979,11.472-2.948c0.924-0.233,1.272-0.654,1.07-1.696
		c-0.424-2.188-1.228-3.127-3.432-3.305c-1.304-0.105-2.64-0.073-3.939,0.077c-2.19,0.252-3.777,1.383-4.607,3.508
		c-0.117,0.299-0.609,0.68-0.892,0.652C324.415,105.46,320.091,104.979,315.68,104.503z M341.555,113.574
		c-1.148,0.352-2.283,0.69-3.414,1.046c-2.242,0.706-4.527,1.306-6.711,2.163c-1.975,0.777-2.771,2.371-2.441,4.174
		c0.321,1.762,1.706,2.914,3.81,3.008C338.122,124.199,342.674,121.01,341.555,113.574z"/>
	<path fill-rule="evenodd" clip-rule="evenodd" fill="#FFFFFF" d="M240.098,132.006c-5.687-0.055-10.833-1.15-15.137-4.85
		c-4.846-4.164-6.754-9.527-6.484-15.794c0.437-10.158,8.103-17.814,19.231-18.351c3.531-0.17,7.037-0.018,10.443,1.026
		c7.671,2.351,12.589,8.464,13.139,16.513c0.514,7.516-1.912,13.766-8.362,18.078c-3.095,2.068-6.61,2.947-10.281,3.254
		C241.733,131.959,240.813,131.973,240.098,132.006z M247.105,112.468c-0.308-1.646-0.469-3.371-0.97-4.992
		c-0.865-2.797-3.29-4.577-5.926-4.624c-2.975-0.053-5.432,1.537-6.475,4.399c-1.289,3.537-1.269,7.145,0.014,10.675
		c1.004,2.77,3.513,4.424,6.264,4.363c2.851-0.061,5.271-1.801,6.138-4.682C246.64,115.98,246.786,114.252,247.105,112.468z"/>
	<path fill-rule="evenodd" clip-rule="evenodd" fill="#FFFFFF" d="M432.31,132.002c-5.818-0.035-11.024-1.131-15.316-4.902
		c-6.156-5.412-7.636-12.354-5.731-19.956c1.896-7.567,7.167-12.06,14.725-13.591c6.191-1.254,12.379-0.998,18.077,2.112
		c5.731,3.129,8.713,8.163,9.278,14.62c0.474,5.41-0.625,10.412-4.184,14.688c-3.738,4.49-8.725,6.412-14.385,6.908
		C433.859,131.961,432.938,131.973,432.31,132.002z M424.684,112.458c0.104,0.023,0.206,0.047,0.309,0.07
		c-0.054,2.184,0.165,4.325,1.247,6.269c1.269,2.279,3.236,3.523,5.865,3.477c2.678-0.049,4.749-1.33,5.771-3.785
		c1.577-3.792,1.633-7.732,0.123-11.559c-1-2.535-2.983-4.021-5.813-4.069c-2.908-0.051-5.059,1.339-6.131,3.962
		C425.33,108.592,425.122,110.571,424.684,112.458z"/>
	<path fill-rule="evenodd" clip-rule="evenodd" fill="#FFFFFF" d="M125.716,120.719c4.626-0.436,9.077-0.871,13.533-1.246
		c0.298-0.025,0.781,0.313,0.927,0.605c1.898,3.818,6.382,5.238,10.164,3.172c1.119-0.611,1.934-1.459,1.823-2.844
		c-0.112-1.406-1.08-2.15-2.312-2.426c-3.466-0.775-6.959-1.43-10.432-2.178c-1.52-0.328-3.037-0.7-4.517-1.173
		c-4.451-1.423-7.489-5.197-7.667-9.425c-0.196-4.652,2.158-8.582,6.683-10.34c2.419-0.939,5.065-1.526,7.653-1.744
		c4.295-0.362,8.641-0.414,12.885,0.619c4.933,1.202,7.926,4.487,9.659,9.271c-4.575,0.447-9.046,0.884-13.482,1.316
		c-1.723-3.259-4.683-4.511-8.152-3.515c-1.515,0.436-2.37,1.386-2.37,2.634c0,1.201,0.624,2.028,2.274,2.365
		c2.735,0.557,5.527,0.831,8.264,1.381c2.574,0.518,5.191,1.014,7.641,1.919c3.91,1.444,6.479,4.309,6.992,8.541
		c0.533,4.398-1.186,7.988-4.699,10.66c-2.891,2.197-6.276,3.092-9.83,3.422c-5.08,0.469-10.144,0.432-15.126-0.809
		c-4.935-1.23-8.198-4.283-9.688-9.176C125.849,121.455,125.807,121.145,125.716,120.719z"/>
	<path fill-rule="evenodd" clip-rule="evenodd" fill="#FFFFFF" d="M460.874,79.63c4.792,0,9.494,0,14.257,0
		c0,17.154,0,34.253,0,51.446c-4.714,0-9.444,0-14.257,0C460.874,113.974,460.874,96.847,460.874,79.63z"/>
	<path fill-rule="evenodd" clip-rule="evenodd" fill="#FFFFFF" d="M565.651,158.568c-6.226-0.166-11.828-2.303-16.89-5.762
		c-6.855-4.684-14.14-8.559-21.644-12.055c-2.133-0.996-4.324-1.867-6.485-2.801c-0.622-0.27-1.297-0.479-1.829-0.875
		c-0.47-0.35-1.101-0.951-1.062-1.391c0.039-0.453,0.733-1.064,1.256-1.219c1.202-0.352,2.484-0.701,3.715-0.643
		c7.488,0.355,14.724,1.93,21.587,4.988c5.651,2.516,11.326,4.996,16.85,7.773c3.444,1.73,6.98,2.471,10.747,2.369
		c2.114-0.057,4.223-0.377,6.336-0.398c1.661-0.018,3.348,0.121,4.981,0.418c1.219,0.223,1.385,1.078,0.404,1.848
		c-0.902,0.707-1.952,1.23-2.944,1.822c-1.955,1.166-3.917,2.32-5.872,3.488C571.984,157.814,568.928,158.594,565.651,158.568z"/>
	<path fill-rule="evenodd" clip-rule="evenodd" fill="#FFFFFF" d="M484.924,93.84c4.751,0,9.445,0,14.203,0
		c0,12.435,0,24.807,0,37.256c-4.716,0-9.414,0-14.203,0C484.924,118.734,484.924,106.362,484.924,93.84z"/>
	<path fill-rule="evenodd" clip-rule="evenodd" fill="#FFFFFF" d="M107.5,127.816c-0.087,0.26-0.123,0.553-0.268,0.773
		c-2.389,3.641-7.86,7.518-13.77,5.193c-1.281-0.504-2.152-1.299-2.693-2.533c-1.916-4.373-0.667-9.262,3.185-12.049
		c2.848-2.059,6.017-3.257,9.596-3.148c2.368,0.071,3.852,1.135,4.691,3.383c-2.349-1.072-4.536-0.676-6.479,0.896
		c-2.068,1.672-3.055,3.855-2.523,6.555c0.316,1.602,1.318,2.416,2.973,2.637C104.258,129.795,105.959,129.068,107.5,127.816z"/>
	<path fill-rule="evenodd" clip-rule="evenodd" fill="#FFFFFF" d="M484.833,89.282c0-2.895-0.002-5.721,0.003-8.547
		c0-0.349,0.037-0.697,0.061-1.102c4.765,0,9.458,0,14.223,0c0,3.207,0,6.383,0,9.648C494.427,89.282,489.734,89.282,484.833,89.282
		z"/>
	<path fill-rule="evenodd" clip-rule="evenodd" fill="#FFFFFF" d="M107.773,127.514c0.688-2.676,1.271-5.357,0.444-8.117
		c0.47,0.598,1.218,1.137,1.359,1.805C110.079,123.572,109.643,125.773,107.773,127.514z"/>
</g>
</svg>
